<?xml version="1.0" encoding="UTF-8" standalone="no" ?>
<!DOCTYPE svg PUBLIC "-//W3C//DTD SVG 1.1//EN" "http://www.w3.org/Graphics/SVG/1.1/DTD/svg11.dtd">
<svg xmlns="http://www.w3.org/2000/svg" xmlns:xlink="http://www.w3.org/1999/xlink" version="1.1" width="1080" height="1080" viewBox="0 0 1080 1080" xml:space="preserve">
<desc>Created with Fabric.js 5.2.4</desc>
<defs>
</defs>
<rect x="0" y="0" width="100%" height="100%" fill="transparent"></rect>
<g transform="matrix(1 0 0 1 540 540)" id="c9918f39-53fb-4e46-a2c2-a58af718ce44"  >
<rect style="stroke: none; stroke-width: 1; stroke-dasharray: none; stroke-linecap: butt; stroke-dashoffset: 0; stroke-linejoin: miter; stroke-miterlimit: 4; fill: rgb(255,255,255); fill-rule: nonzero; opacity: 1; visibility: hidden;" vector-effect="non-scaling-stroke"  x="-540" y="-540" rx="0" ry="0" width="1080" height="1080" />
</g>
<g transform="matrix(1 0 0 1 540 540)" id="48c174ce-e90c-41d1-b65c-c0648a4557ad"  >
</g>
<g transform="matrix(1 0 0 1 540 540)" id="ab6d8216-4ee2-488b-8c4d-83bf3abd82ac"  >
<path style="stroke: rgb(0,0,0); stroke-width: 0; stroke-dasharray: none; stroke-linecap: butt; stroke-dashoffset: 0; stroke-linejoin: miter; stroke-miterlimit: 4; fill: rgb(82,82,213); fill-rule: nonzero; opacity: 1;" vector-effect="non-scaling-stroke"  transform=" translate(-288.05, -256)" d="M 288 80 C 222.8 80 169.2 109.6 128.1 147.7 C 89.6 183.5 63 226 49.4 256 C 63 286 89.6 328.5 128 364.3 C 169.2 402.4 222.8 432 288 432 C 353.2 432 406.8 402.4 447.9 364.3 C 486.4 328.5 513 286 526.6 256 C 513 226 486.40000000000003 183.5 448 147.7 C 406.8 109.6 353.2 80 288 80 z M 95.4 112.6 C 142.5 68.8 207.2 32 288 32 C 368.8 32 433.5 68.8 480.6 112.6 C 527.4 156.1 558.7 208 573.6 243.7 C 576.9 251.6 576.9 260.4 573.6 268.3 C 558.7 304 527.4 356 480.6 399.4 C 433.5 443.2 368.8 480 288 480 C 207.2 480 142.5 443.2 95.4 399.4 C 48.6 356 17.3 304 2.5 268.3 C -0.7999999999999998 260.40000000000003 -0.7999999999999998 251.60000000000002 2.5 243.70000000000002 C 17.3 208 48.6 156 95.4 112.6 z M 288 336 C 332.2 336 368 300.2 368 256 C 368 211.8 332.2 176 288 176 C 287.3 176 286.7 176 286 176 C 287.3 181.1 288 186.5 288 192 C 288 227.3 259.3 256 224 256 C 218.5 256 213.1 255.3 208 254 C 208 254.7 208 255.3 208 256 C 208 300.2 243.8 336 288 336 z M 288 128 C 358.69244797834153 128 416 185.3075520216584 416 255.99999999999997 C 416 326.69244797834153 358.6924479783416 384 288.00000000000006 384 C 217.30755202165844 384 160 326.69244797834153 160 256 C 160 185.30755202165844 217.30755202165844 128 288 128 z" stroke-linecap="round" />
</g>
<g transform="matrix(NaN NaN NaN NaN 0 0)"  >
<g style=""   >
</g>
</g>
<g transform="matrix(1 0 0 1 540 540)" id="3d2a9035-e0b3-4d9a-afbb-d8e31987b77c"  >
<path style="stroke: rgb(0,0,0); stroke-width: 0; stroke-dasharray: none; stroke-linecap: butt; stroke-dashoffset: 0; stroke-linejoin: miter; stroke-miterlimit: 4; fill: rgb(82,82,213); fill-rule: nonzero; opacity: 1;" vector-effect="non-scaling-stroke"  transform=" translate(-320, -256)" d="M 38.8 5.1 C 28.4 -3.1 13.3 -1.2 5.1 9.2 C -3.1000000000000014 19.599999999999998 -1.2 34.7 9.2 42.9 L 601.2 506.9 C 611.6 515.1 626.7 513.1999999999999 634.9000000000001 502.79999999999995 C 643.1000000000001 492.4 641.2 477.29999999999995 630.8000000000001 469.09999999999997 L 525.6 386.7 C 565.2 346.09999999999997 592 300.6 605.5 268.29999999999995 C 608.8 260.4 608.8 251.59999999999997 605.5 243.69999999999996 C 590.6 207.99999999999994 559.3 155.99999999999994 512.5 112.59999999999997 C 465.5 68.8 400.8 32 320 32 C 251.8 32 195 58.3 150.7 92.8 L 38.8 5.1 z M 189.8 123.39999999999999 C 226 97.7 269.5 80 320 80 C 385.2 80 438.8 109.6 479.9 147.7 C 518.4 183.5 545 226 558.6 256 C 546 284 522 322.8 487.70000000000005 356.9 L 433.90000000000003 314.7 C 443.00000000000006 297.09999999999997 448.1 277.2 448.1 256 C 448.1 185.3 390.8 128 320.1 128 C 287.90000000000003 128 258.40000000000003 139.9 235.90000000000003 159.5 L 189.80000000000004 123.4 z M 394.9 284.2 L 313.4 220.29999999999998 C 317.59999999999997 211.79999999999998 320 202.1 320 191.99999999999997 C 320 186.49999999999997 319.3 181.09999999999997 318 175.99999999999997 C 318.7 175.99999999999997 319.3 175.99999999999997 320 175.99999999999997 C 364.2 175.99999999999997 400 211.79999999999995 400 255.99999999999997 C 400 265.9 398.2 275.4 394.9 284.2 z M 404.29999999999995 414.5 C 378.8 425.4 350.7 432 320 432 C 254.8 432 201.2 402.4 160.1 364.3 C 121.6 328.5 95 286 81.4 256 C 89.7 237.6 102.9 214.5 120.80000000000001 191.2 L 83.1 161.5 C 60.3 191.2 44 220.8 34.5 243.7 C 31.2 251.6 31.2 260.4 34.5 268.3 C 49.4 304 80.7 356 127.5 399.4 C 174.5 443.2 239.2 480 320 480 C 367.8 480 409.9 467.1 446.2 447.5 L 404.3 414.5 z M 192 256 C 192 326.7 249.3 384 320 384 C 333.3 384 346.1 382 358.2 378.2 L 302 334 C 278.5 328.6 258.9 312.8 248.3 291.7 L 192.20000000000002 247.5 C 192.00000000000003 250.3 191.9 253.1 191.9 256 z" stroke-linecap="round" />
</g>
<g transform="matrix(NaN NaN NaN NaN 0 0)"  >
<g style=""   >
</g>
</g>
</svg>